<svg width="328" height="54" viewBox="0 0 328 54" fill="none" xmlns="http://www.w3.org/2000/svg">
<g opacity="0.7" filter="url(#filter0_d_5_160)">
<path d="M2.9956 6V3H5.99561V0H8.99561V3V6H5.99561V9H2.9956V6Z" fill="#1E3445"/>
<path d="M2.9956 6V9H0.000199318V6H2.9956Z" fill="#1E3445"/>
<rect x="8.99561" width="307.009" height="3" fill="#1E3445"/>
<path d="M322.004 6V3H319.004V0H316.004V3V6H319.004V9H322.004V6Z" fill="#1E3445"/>
<path d="M322.004 6V9H325V6H322.004Z" fill="#1E3445"/>
<rect y="9" width="3" height="33" fill="#1E3445"/>
<rect width="319" height="45" transform="translate(3 3)" fill="white"/>
<rect x="322" y="9" width="3" height="33" fill="#1E3445"/>
<path d="M322 3V6V9H319V6H316V3H319H322Z" fill="#1E3445"/>
<path d="M3 3V6V9H6V6H9V3H6H3Z" fill="#1E3445"/>
<path d="M2.9956 45V48H5.99561V51H8.99561V48V45H5.99561V42H2.9956V45Z" fill="#1E3445"/>
<path d="M2.9956 45V42H0.000199318V45H2.9956Z" fill="#1E3445"/>
<rect width="307.009" height="3" transform="matrix(1 0 0 -1 8.99561 51)" fill="#1E3445"/>
<path d="M322.004 45V48H319.004V51H316.004V48V45H319.004V42H322.004V45Z" fill="#1E3445"/>
<path d="M322.004 45V42H325V45H322.004Z" fill="#1E3445"/>
</g>
<defs>
<filter id="filter0_d_5_160" x="0" y="0" width="328" height="54" filterUnits="userSpaceOnUse" color-interpolation-filters="sRGB">
<feFlood flood-opacity="0" result="BackgroundImageFix"/>
<feColorMatrix in="SourceAlpha" type="matrix" values="0 0 0 0 0 0 0 0 0 0 0 0 0 0 0 0 0 0 127 0" result="hardAlpha"/>
<feOffset dx="3" dy="3"/>
<feComposite in2="hardAlpha" operator="out"/>
<feColorMatrix type="matrix" values="0 0 0 0 0.117647 0 0 0 0 0.203922 0 0 0 0 0.270588 0 0 0 1 0"/>
<feBlend mode="normal" in2="BackgroundImageFix" result="effect1_dropShadow_5_160"/>
<feBlend mode="normal" in="SourceGraphic" in2="effect1_dropShadow_5_160" result="shape"/>
</filter>
</defs>
</svg>
