<?xml version="1.0" standalone="no"?>
<!DOCTYPE svg PUBLIC "-//W3C//DTD SVG 1.1//EN" "http://www.w3.org/Graphics/SVG/1.1/DTD/svg11.dtd">
<svg t="1726880863288" class="icon" viewBox="0 0 1024 1024" version="1.1"
    xmlns="http://www.w3.org/2000/svg" p-id="4350" width="128" height="128"
    xmlns:xlink="http://www.w3.org/1999/xlink">
    <path d="M554.666667 554.666667h85.333333v85.333333h-85.333333z" fill="#ffffff" p-id="4351"></path>
    <path d="M597.333333 597.333333h85.333334v85.333334h-85.333334z" fill="#ffffff" p-id="4352"></path>
    <path d="M640 640h85.333333v85.333333h-85.333333z" fill="#ffffff" p-id="4353"></path>
    <path d="M682.666667 682.666667h85.333333v85.333333h-85.333333z" fill="#ffffff" p-id="4354"></path>
    <path d="M725.333333 725.333333h85.333334v85.333334h-85.333334z" fill="#ffffff" p-id="4355"></path>
    <path d="M768 768h85.333333v85.333333h-85.333333z" fill="#ffffff" p-id="4356"></path>
    <path d="M810.666667 810.666667h85.333333v85.333333h-85.333333z" fill="#ffffff" p-id="4357"></path>
    <path d="M256 256h85.333333v85.333333H256z" fill="#ffffff" p-id="4358"></path>
    <path d="M298.666667 298.666667h85.333333v85.333333H298.666667z" fill="#ffffff" p-id="4359"></path>
    <path d="M341.333333 341.333333h85.333334v85.333334H341.333333z" fill="#ffffff" p-id="4360"></path>
    <path d="M128 128h85.333333v85.333333H128z" fill="#ffffff" p-id="4361"></path>
    <path d="M170.666667 170.666667h85.333333v85.333333H170.666667z" fill="#ffffff" p-id="4362"></path>
    <path d="M213.333333 213.333333h85.333334v85.333334H213.333333z" fill="#ffffff" p-id="4363"></path>
    <path d="M384 384h85.333333v85.333333H384z" fill="#ffffff" p-id="4364"></path>
    <path d="M426.666667 426.666667h85.333333v85.333333h-85.333333z" fill="#ffffff" p-id="4365"></path>
    <path d="M469.333333 469.333333h85.333334v85.333334h-85.333334z" fill="#ffffff" p-id="4366"></path>
    <path d="M512 512h85.333333v85.333333h-85.333333z" fill="#ffffff" p-id="4367"></path>
    <path d="M384 554.666667h85.333333v85.333333H384z" fill="#ffffff" p-id="4368"></path>
    <path d="M341.333333 597.333333h85.333334v85.333334H341.333333z" fill="#ffffff" p-id="4369"></path>
    <path d="M298.666667 640h85.333333v85.333333H298.666667z" fill="#ffffff" p-id="4370"></path>
    <path d="M256 682.666667h85.333333v85.333333H256z" fill="#ffffff" p-id="4371"></path>
    <path d="M213.333333 725.333333h85.333334v85.333334H213.333333z" fill="#ffffff" p-id="4372"></path>
    <path d="M170.666667 768h85.333333v85.333333H170.666667z" fill="#ffffff" p-id="4373"></path>
    <path d="M128 810.666667h85.333333v85.333333H128z" fill="#ffffff" p-id="4374"></path>
    <path d="M682.666667 256h85.333333v85.333333h-85.333333z" fill="#ffffff" p-id="4375"></path>
    <path d="M640 298.666667h85.333333v85.333333h-85.333333z" fill="#ffffff" p-id="4376"></path>
    <path d="M597.333333 341.333333h85.333334v85.333334h-85.333334z" fill="#ffffff" p-id="4377"></path>
    <path d="M810.666667 128h85.333333v85.333333h-85.333333z" fill="#ffffff" p-id="4378"></path>
    <path d="M768 170.666667h85.333333v85.333333h-85.333333z" fill="#ffffff" p-id="4379"></path>
    <path d="M725.333333 213.333333h85.333334v85.333334h-85.333334z" fill="#ffffff" p-id="4380"></path>
    <path d="M554.666667 384h85.333333v85.333333h-85.333333z" fill="#ffffff" p-id="4381"></path>
    <path d="M512 426.666667h85.333333v85.333333h-85.333333z" fill="#ffffff" p-id="4382"></path>
    <path d="M469.333333 469.333333h85.333334v85.333334h-85.333334z" fill="#ffffff" p-id="4383"></path>
    <path d="M426.666667 512h85.333333v85.333333h-85.333333z" fill="#ffffff" p-id="4384"></path>
</svg>