<svg width="37" height="36" viewBox="0 0 37 36" fill="none" xmlns="http://www.w3.org/2000/svg">
<rect x="6.55566" y="12.5" width="23.3333" height="12" fill="#5F2683"/>
<path d="M28.3333 12.5H29.8889V14H28.3333V12.5Z" fill="black"/>
<path d="M6.55556 12.5H8.11111V14H6.55556V12.5Z" fill="black"/>
<path d="M6.55556 23H8.11111V24.5H6.55556V23Z" fill="black"/>
<path d="M28.3333 23H29.8889V24.5H28.3333V23Z" fill="black"/>
<path d="M28.3333 12.5V11H8.11111V12.5H28.3333Z" fill="black"/>
<path d="M6.55556 14H5V23H6.55556V14Z" fill="black"/>
<path d="M28.3333 26V24.5H8.11111V26H28.3333Z" fill="black"/>
<path d="M31.4444 14H29.8889V15.5V21.5V23H31.4444V21.5H33V15.5H31.4444V14Z" fill="black"/>
</svg>
