<svg width="37" height="36" viewBox="0 0 37 36" fill="none" xmlns="http://www.w3.org/2000/svg">
<rect width="1.7234" height="2.22222" transform="translate(14.7661 28.5557)" fill="#212121"/>
<rect width="1.7234" height="2.22222" transform="translate(20.5107 28.5557)" fill="#212121"/>
<rect width="2.29787" height="1.66667" transform="translate(12.4678 26.8887)" fill="#212121"/>
<rect width="1.7234" height="2.22222" transform="translate(10.7446 24.6665)" fill="#212121"/>
<rect width="1.7234" height="2.22222" transform="translate(9.02148 22.4443)" fill="#212121"/>
<rect width="2.29787" height="2.22222" transform="translate(27.9785 20.2222)" fill="#212121"/>
<rect width="1.7234" height="1.66667" transform="translate(30.2769 18.5557)" fill="#212121"/>
<rect width="1.7234" height="2.22222" transform="translate(30.2769 16.3335)" fill="#212121"/>
<rect width="1.7234" height="2.22222" transform="translate(5 16.3335)" fill="#212121"/>
<rect width="1.7234" height="2.22222" transform="translate(30.2769 14.1113)" fill="#212121"/>
<rect width="1.7234" height="2.22222" transform="translate(5 14.1113)" fill="#212121"/>
<rect width="1.7234" height="2.22222" transform="translate(30.2769 11.8892)" fill="#212121"/>
<rect width="1.7234" height="1.66667" transform="translate(14.7661 10.2222)" fill="#212121"/>
<rect width="1.7234" height="1.66667" transform="translate(20.5107 10.2222)" fill="#212121"/>
<rect width="1.7234" height="2.22222" transform="translate(5 11.8892)" fill="#212121"/>
<rect width="2.29787" height="2.22222" transform="translate(6.72314 20.2222)" fill="#212121"/>
<rect width="1.7234" height="1.66667" transform="translate(5 18.5557)" fill="#212121"/>
<rect width="2.29787" height="1.66667" transform="translate(22.2339 26.8887)" fill="#212121"/>
<rect width="1.7234" height="2.22222" transform="translate(24.5322 24.6665)" fill="#212121"/>
<rect width="1.7234" height="2.22222" transform="translate(26.2554 22.4443)" fill="#212121"/>
<rect width="4.02128" height="2.22222" transform="translate(16.4893 30.7778)" fill="#212121"/>
<rect width="4.02128" height="1.66667" transform="translate(5 10.2222)" fill="#212121"/>
<rect width="5.74468" height="2.22222" transform="translate(9.02148 8)" fill="#212121"/>
<rect width="5.74468" height="2.22222" transform="translate(22.2339 8)" fill="#212121"/>
<rect width="4.02128" height="1.66667" transform="translate(27.9785 10.2222)" fill="#212121"/>
<rect width="4.02128" height="2.22222" transform="translate(16.4893 11.8892)" fill="#212121"/>
<rect width="7.46809" height="2.22222" transform="translate(20.5107 11.8892)" fill="#5F2683"/>
<rect width="7.46809" height="2.22222" transform="translate(14.7661 14.1113)" fill="#5F2683"/>
<rect width="7.46809" height="2.22222" transform="translate(20.5107 16.3335)" fill="#5F2683"/>
<rect width="8.04255" height="1.66667" transform="translate(10.7446 18.5557)" fill="#5F2683"/>
<rect width="8.04255" height="1.66667" transform="translate(18.2129 18.5557)" fill="#5F2683"/>
<rect width="8.04255" height="2.22222" transform="translate(12.4678 24.6665)" fill="#5F2683"/>
<rect width="7.46809" height="2.22222" transform="translate(9.02148 20.2222)" fill="#5F2683"/>
<rect width="7.46809" height="2.22222" transform="translate(14.7661 22.4443)" fill="#5F2683"/>
<rect width="8.04255" height="2.22222" transform="translate(16.4893 20.2222)" fill="#5F2683"/>
<rect width="8.04255" height="2.22222" transform="translate(12.4678 16.3335)" fill="#5F2683"/>
<rect width="5.74468" height="1.66667" transform="translate(9.02148 10.2222)" fill="#5F2683"/>
<rect width="5.74468" height="2.22222" transform="translate(6.72314 16.3335)" fill="#5F2683"/>
<rect width="4.02128" height="2.22222" transform="translate(6.72314 11.8892)" fill="#5F2683"/>
<rect width="4.02128" height="2.22222" transform="translate(10.7446 14.1113)" fill="#5F2683"/>
<rect width="5.74468" height="2.22222" transform="translate(22.2339 14.1113)" fill="#5F2683"/>
<rect width="4.02128" height="2.22222" transform="translate(12.4678 11.8892)" fill="#5F2683"/>
<rect width="2.29787" height="2.22222" transform="translate(6.72314 14.1113)" fill="#5F2683"/>
<rect width="1.7234" height="2.22222" transform="translate(9.02148 14.1113)" fill="#5F2683"/>
<rect width="1.7234" height="2.22222" transform="translate(10.7446 11.8892)" fill="#5F2683"/>
<rect width="4.02128" height="1.66667" transform="translate(14.7661 26.8887)" fill="#5F2683"/>
<rect width="4.02128" height="1.66667" transform="translate(6.72314 18.5557)" fill="#5F2683"/>
<rect width="4.02128" height="2.22222" transform="translate(10.7446 22.4443)" fill="#5F2683"/>
<rect width="4.02128" height="1.66667" transform="translate(22.2339 10.2222)" fill="#5F2683"/>
<rect width="1.7234" height="1.66667" transform="translate(26.2554 10.2222)" fill="#5F2683"/>
<rect width="2.29787" height="2.22222" transform="translate(27.9785 11.8892)" fill="#5F2683"/>
<rect width="2.29787" height="2.22222" transform="translate(27.9785 14.1113)" fill="#5F2683"/>
<rect width="2.29787" height="2.22222" transform="translate(27.9785 16.3335)" fill="#5F2683"/>
<rect width="4.02128" height="1.66667" transform="translate(26.2554 18.5557)" fill="#5F2683"/>
<rect width="4.02128" height="2.22222" transform="translate(16.4893 28.5557)" fill="#5F2683"/>
<rect width="3.44681" height="2.22222" transform="translate(24.5322 20.2222)" fill="#5F2683"/>
<rect width="4.02128" height="2.22222" transform="translate(22.2339 22.4443)" fill="#5F2683"/>
<rect width="4.02128" height="2.22222" transform="translate(20.5107 24.6665)" fill="#5F2683"/>
<rect width="4.02128" height="1.66667" transform="translate(18.2129 26.8887)" fill="#5F2683"/>
</svg>
