<svg width="34" height="34" viewBox="0 0 34 34" fill="none" xmlns="http://www.w3.org/2000/svg">
<path d="M18.6668 7H15.3335V10.3333H18.6668V7Z" fill="white"/>
<path d="M18.6668 13.6665H15.3335V26.9998H18.6668V13.6665Z" fill="white"/>
<path d="M32.0002 5.33325V3.66659H30.3335V1.99992H28.6668V0.333252H5.3335V1.99992H3.66683V3.66659H2.00016V5.33325H0.333496V28.6666H2.00016V30.3333H3.66683V31.9999H5.3335V33.6666H28.6668V31.9999H30.3335V30.3333H32.0002V28.6666H33.6668V5.33325H32.0002ZM30.3335 25.3333H28.6668V26.9999H27.0002V28.6666H25.3335V30.3333H8.66683V28.6666H7.00016V26.9999H5.3335V25.3333H3.66683V8.66658H5.3335V6.99992H7.00016V5.33325H8.66683V3.66659H25.3335V5.33325H27.0002V6.99992H28.6668V8.66658H30.3335V25.3333Z" fill="white"/>
</svg>
