<svg width="116" height="53" viewBox="0 0 116 53" fill="none" xmlns="http://www.w3.org/2000/svg">
<path d="M1 23C1 11.402 10.402 2 22 2H94C105.598 2 115 11.402 115 23V29C115 40.598 105.598 50 94 50H22C10.402 50 1 40.598 1 29V23Z" fill="#F4F4F7" fill-opacity="0.7" stroke="black" stroke-width="2"/>
<path d="M52.25 30.9166H54.5V33.125H52.25V30.9166Z" fill="black"/>
<path d="M63.5 30.9166H65.75V33.125H63.5V30.9166Z" fill="black"/>
<path d="M43.25 22.0833H45.5V24.2917H43.25V22.0833Z" fill="black"/>
<path d="M52.25 30.9166H54.5V33.125H52.25V30.9166Z" fill="black"/>
<path d="M41 15.4583H43.25V17.6667H41V15.4583Z" fill="black"/>
<path d="M74.75 15.4583H77V17.6667H74.75V15.4583Z" fill="black"/>
<path d="M63.5 30.9166H65.75V33.125H63.5V30.9166Z" fill="black"/>
<path d="M70.25 24.2917H72.5V26.5H70.25V24.2917Z" fill="black"/>
<path d="M72.5 22.0833H74.75V24.2917H72.5V22.0833Z" fill="black"/>
<path d="M74.75 35.3333H77V37.5417H74.75V35.3333Z" fill="black"/>
<path d="M41 35.3333H43.25V37.5417H41V35.3333Z" fill="black"/>
<path d="M45.5 19.875H47.75V22.0833H45.5V19.875Z" fill="black"/>
<path d="M47.75 22.0833H50V24.2917H47.75V22.0833Z" fill="black"/>
<path d="M45.5 24.2917H47.75V26.5H45.5V24.2917Z" fill="black"/>
<path d="M68 22.0833H70.25L70.25 24.2917L68 24.2917V22.0833Z" fill="black"/>
<path d="M70.25 19.875H72.5L72.5 22.0833L70.25 22.0833L70.25 19.875Z" fill="black"/>
<path d="M54.5 28.7083V30.9166H63.5L63.5 28.7083H54.5Z" fill="black"/>
<path d="M50 37.5417L52.25 37.5417L52.25 33.125L50 33.125L50 37.5417Z" fill="black"/>
<path d="M50 39.75V37.5417L43.25 37.5417V39.75L50 39.75Z" fill="black"/>
<path d="M41 17.6667H38.75V35.3333H41V17.6667Z" fill="black"/>
<path d="M43.25 13.25V15.4583H52.25V13.25H43.25Z" fill="black"/>
<path d="M65.75 17.6667V15.4583H52.25V17.6667H65.75Z" fill="black"/>
<path d="M74.75 15.4583V13.25H65.75V15.4583H74.75Z" fill="black"/>
<path d="M79.25 17.6667H77V35.3333H79.25V17.6667Z" fill="black"/>
<path d="M68 37.5417L68 39.75L74.75 39.75V37.5417L68 37.5417Z" fill="black"/>
<path d="M65.75 37.5417H68V33.125L65.75 33.125L65.75 37.5417Z" fill="black"/>
</svg>
