<svg width="35" height="36" viewBox="0 0 35 36" fill="none" xmlns="http://www.w3.org/2000/svg">
<path d="M33.25 2.25V0.5H22.75V2.25H21V7.5H19.25V11H15.75V12.75H12.25V11H1.75V12.75H0V23.25H1.75V25H12.25V23.25H15.75V25H19.25V28.5H21V33.75H22.75V35.5H33.25V33.75H35V23.25H33.25V21.5H24.5V23.25H22.75V21.5H19.25V19.75H17.5V16.25H19.25V14.5H22.75V12.75H24.5V14.5H33.25V12.75H35V2.25H33.25ZM31.5 9.25H29.75V11H26.25V9.25H24.5V5.75H26.25V4H29.75V5.75H31.5V9.25ZM8.75 19.75V21.5H5.25V19.75H3.5V16.25H5.25V14.5H8.75V16.25H10.5V19.75H8.75ZM26.25 25H29.75V26.75H31.5V30.25H29.75V32H26.25V30.25H24.5V26.75H26.25V25Z" fill="#F4F4F7" fill-opacity="0.7"/>
</svg>
