<svg width="28" height="30" viewBox="0 0 28 30" fill="none" xmlns="http://www.w3.org/2000/svg">
<path d="M7.33317 15H8.99984V16.6667H18.9998V15H20.6665V13.3333H22.3332V3.33333H20.6665V1.66667H18.9998V0H8.99984V1.66667H7.33317V3.33333H5.6665V13.3333H7.33317V15ZM8.99984 6.66667H10.6665V5H12.3332V3.33333H15.6665V5H17.3332V6.66667H18.9998V10H17.3332V11.6667H15.6665V13.3333H12.3332V11.6667H10.6665V10H8.99984V6.66667Z" fill="white"/>
<path d="M25.6665 21.6666V19.9999H23.9998V18.3333H3.99984V19.9999H2.33317V21.6666H0.666504V29.9999H3.99984V24.9999H5.6665V23.3333H7.33317V21.6666H20.6665V23.3333H22.3332V24.9999H23.9998V29.9999H27.3332V21.6666H25.6665Z" fill="white"/>
</svg>
